solid pyramid


facet normal 0.5773502588272095 0.5773502588272095 0.5773502588272095
    outer loop
        vertex 1.0 0.0 0.0
        vertex 0.0 1.0 0.0
        vertex 0.0 0.0 1.0
    endloop
endfacet

facet normal -0.5773502588272095 0.5773502588272095 0.5773502588272095
    outer loop
        vertex 0.0 1.0 0.0
        vertex -1.0 0.0 0.0
        vertex 0.0 0.0 1.0
    endloop
endfacet

facet normal -0.5773502588272095 -0.5773502588272095 0.5773502588272095
    outer loop
        vertex -1.0 0.0 0.0
        vertex 0.0 -1.0 0.0
        vertex 0.0 0.0 1.0
    endloop
endfacet

facet normal 0.5773502588272095 -0.5773502588272095 0.5773502588272095
    outer loop
        vertex 0.0 -1.0 0.0
        vertex 1.0 0.0 0.0
        vertex 0.0 0.0 1.0
    endloop
endfacet
endsolid pyramid
