solid pyramid
  facet normal 0.0 -0.8164965510368347 0.5773502588272095
    outer loop
      vertex 0.0 0.0 0.0
      vertex 1.0 0.0 0.0
      vertex 0.5 0.5 0.7071067690849304
    endloop
  endfacet
  facet normal 0.8164965510368347 0.0 0.5773502588272095
    outer loop
      vertex 1.0 0.0 0.0
      vertex 1.0 1.0 0.0
      vertex 0.5 0.5 0.7071067690849304
    endloop
  endfacet
  facet normal 0.0 0.8164965510368347 0.5773502588272095
    outer loop
      vertex 1.0 1.0 0.0
      vertex 0.0 1.0 0.0
      vertex 0.5 0.5 0.7071067690849304
    endloop
  endfacet
  facet normal -0.8164965510368347 0.0 0.5773502588272095
    outer loop
      vertex 0.0 1.0 0.0
      vertex 0.0 0.0 0.0
      vertex 0.5 0.5 0.7071067690849304
    endloop
  endfacet
endsolid pyramid
